<svg width="85" height="85" viewBox="0 0 85 85" fill="none" xmlns="http://www.w3.org/2000/svg">
<path d="M84.9751 0H0.0249023C0.0111492 0 0 0.0111492 0 0.0249023V84.9751C0 84.9889 0.0111492 85 0.0249023 85H84.9751C84.9889 85 85 84.9889 85 84.9751V0.0249023C85 0.0111492 84.9889 0 84.9751 0Z" fill="#FF6B35"/>
<path d="M20.752 49.3066V66.7383H60.7617V49.3066M48.6426 14.7754L63.584 34.6973L48.6426 14.7754ZM39.8438 23.0762L58.9355 39.1797L39.8438 23.0762ZM33.0371 33.8672L55.6152 44.4922L33.0371 33.8672ZM29.2188 45.3223L53.7891 50.4688L29.2188 45.3223ZM28.2227 56.6113H53.125H28.2227Z" stroke="white" stroke-width="5"/>
</svg>
