<svg width="63" height="62" viewBox="0 0 63 62" fill="none" xmlns="http://www.w3.org/2000/svg">
<g filter="url(#filter0_d)">
<path d="M42.6966 34.3192C45.7225 30.1901 47.0778 25.0707 46.4913 19.9853C45.9048 14.8999 43.4197 10.2234 39.5333 6.89149C35.6469 3.55959 30.6458 1.81797 25.5304 2.01508C20.4151 2.21218 15.5628 4.33347 11.9443 7.95455C8.32578 11.5756 6.20796 16.4294 6.01452 21.5449C5.82108 26.6604 7.56627 31.6603 10.901 35.5443C14.2356 39.4284 18.9139 41.91 23.9997 42.4929C29.0856 43.0758 34.204 41.7168 38.3309 38.688H38.3278C38.4216 38.813 38.5216 38.9317 38.6341 39.0473L50.6653 51.0786C51.2513 51.665 52.0462 51.9945 52.8751 51.9948C53.7041 51.9951 54.4992 51.6661 55.0856 51.0801C55.672 50.4942 56.0016 49.6993 56.0019 48.8703C56.0022 48.0413 55.6731 47.2462 55.0872 46.6598L43.0559 34.6286C42.9442 34.5155 42.8241 34.411 42.6966 34.3161V34.3192ZM43.5028 22.3067C43.5028 24.5638 43.0582 26.7988 42.1945 28.8841C41.3307 30.9694 40.0647 32.8641 38.4687 34.4601C36.8727 36.0561 34.978 37.3221 32.8927 38.1859C30.8074 39.0496 28.5724 39.4942 26.3153 39.4942C24.0582 39.4942 21.8232 39.0496 19.7379 38.1859C17.6527 37.3221 15.7579 36.0561 14.1619 34.4601C12.5659 32.8641 11.2999 30.9694 10.4361 28.8841C9.57237 26.7988 9.12781 24.5638 9.12781 22.3067C9.12781 17.7483 10.9386 13.3766 14.1619 10.1533C17.3852 6.93003 21.7569 5.11921 26.3153 5.11921C30.8737 5.11921 35.2454 6.93003 38.4687 10.1533C41.692 13.3766 43.5028 17.7483 43.5028 22.3067Z" fill="#2F4858"/>
</g>
<defs>
<filter id="filter0_d" x="0" y="0" width="62.0019" height="61.9948" filterUnits="userSpaceOnUse" color-interpolation-filters="sRGB">
<feFlood flood-opacity="0" result="BackgroundImageFix"/>
<feColorMatrix in="SourceAlpha" type="matrix" values="0 0 0 0 0 0 0 0 0 0 0 0 0 0 0 0 0 0 127 0" result="hardAlpha"/>
<feOffset dy="4"/>
<feGaussianBlur stdDeviation="3"/>
<feComposite in2="hardAlpha" operator="out"/>
<feColorMatrix type="matrix" values="0 0 0 0 0 0 0 0 0 0 0 0 0 0 0 0 0 0 0.25 0"/>
<feBlend mode="normal" in2="BackgroundImageFix" result="effect1_dropShadow"/>
<feBlend mode="normal" in="SourceGraphic" in2="effect1_dropShadow" result="shape"/>
</filter>
</defs>
</svg>
